<svg xmlns="http://www.w3.org/2000/svg" width="720" height="1066" viewBox="0 0 720 1066" fill="none">
  <defs>
    <linearGradient id="bg" x1="0" y1="0" x2="0" y2="1066" gradientUnits="userSpaceOnUse">
      <stop stop-color="#F6B11A"/>
      <stop offset="1" stop-color="#F2A000"/>
    </linearGradient>
    <filter id="shadow" x="-10%" y="-10%" width="120%" height="120%">
      <feDropShadow dx="0" dy="6" stdDeviation="8" flood-color="#000" flood-opacity="0.18"/>
    </filter>
  </defs>
  <rect width="720" height="1066" fill="url(#bg)"/>
  <rect x="18" y="18" width="684" height="1028" rx="18" fill="#FFF4D6" stroke="#C77A00" stroke-width="4"/>
  <rect x="42" y="38" width="636" height="78" rx="14" fill="#F6C15D" stroke="#A86B06" stroke-width="3" filter="url(#shadow)"/>
  <text x="78" y="86" font-family="Segoe UI, Arial, sans-serif" font-size="22">📋</text>
  <text x="130" y="88" fill="#312012" font-family="Segoe UI, Arial, sans-serif" font-size="24" font-weight="800">Manual Rápido StockNewsBR</text>
  <text x="628" y="88" font-family="Segoe UI Emoji, Segoe UI, Arial, sans-serif" font-size="24">🚀</text>

  <g font-family="Segoe UI, Arial, sans-serif" font-weight="800" fill="#fff">
    <rect x="42" y="142" width="636" height="58" rx="10" fill="#148A43"/>
    <text x="58" y="179" font-size="20">🧠 Heat Map</text>
    <text x="268" y="179" font-size="17">Ativos fortes (🟢) e fracos (🔴)</text>

    <rect x="42" y="214" width="636" height="58" rx="10" fill="#EF7A00"/>
    <text x="58" y="251" font-size="20">⚡ Radar</text>
    <text x="170" y="251" font-size="17">Ativos se movendo rápido</text>

    <rect x="42" y="286" width="636" height="58" rx="10" fill="#0B6FD6"/>
    <text x="58" y="323" font-size="20">🎯 Breakout Probability</text>
    <text x="360" y="323" font-size="17">Rompimento de resistência</text>

    <rect x="42" y="358" width="636" height="58" rx="10" fill="#8B36AD"/>
    <text x="58" y="395" font-size="20">🟣 Volatility Squeeze</text>
    <text x="360" y="395" font-size="17">Mercado quieto e explosão</text>

    <rect x="42" y="430" width="636" height="58" rx="10" fill="#173E89"/>
    <text x="58" y="467" font-size="20">🏦 Institutional Flow</text>
    <text x="350" y="467" font-size="17">Entrada de grandes investidores</text>

    <rect x="42" y="502" width="636" height="58" rx="10" fill="#C87D0F"/>
    <text x="58" y="539" font-size="20">💰 Smart Money</text>
    <text x="300" y="539" font-size="17">Movimentação dos "tubarões"</text>

    <rect x="42" y="574" width="636" height="58" rx="10" fill="#9A4C29"/>
    <text x="58" y="611" font-size="20">🏛 Accumulation</text>
    <text x="302" y="611" font-size="17">Compras discretas</text>

    <rect x="42" y="646" width="636" height="58" rx="10" fill="#D61F31"/>
    <text x="58" y="683" font-size="20">🧲 Liquidity Sweep</text>
    <text x="320" y="683" font-size="17">Busca de liquidez</text>

    <rect x="42" y="718" width="636" height="58" rx="10" fill="#0D889C"/>
    <text x="58" y="755" font-size="20">🗺 Liquidity Map</text>
    <text x="300" y="755" font-size="17">Concentração de stops</text>

    <rect x="42" y="790" width="636" height="58" rx="10" fill="#C89B0F"/>
    <text x="58" y="827" font-size="20">📊 Market Regime</text>
    <text x="310" y="827" font-size="17">Alta 📈  Baixa 📉  Lateral ➡</text>

    <rect x="42" y="862" width="636" height="58" rx="10" fill="#1560D1"/>
    <text x="58" y="899" font-size="20">⭐ Master Score</text>
    <text x="328" y="899" font-size="17">90 = Forte   70 = Moderada   &lt;50 = Fraca</text>

    <rect x="42" y="934" width="636" height="58" rx="10" fill="#0E55A8"/>
    <text x="58" y="971" font-size="20">📈 Gráfico IA</text>
    <text x="275" y="971" font-size="17">BUY, SHORT ou ⚠ Encerrar Posição</text>
  </g>

  <rect x="0" y="1006" width="720" height="60" fill="#1A2233"/>
  <text x="42" y="1040" fill="#F4F6FA" font-family="Segoe UI, Arial, sans-serif" font-size="15" font-weight="700">⚠ Ferramentas de apoio, não garantias. Use Gestão de Risco! ⚠</text>
  <text x="410" y="1048" fill="#F4F6FA" font-family="Segoe UI, Arial, sans-serif" font-size="17" font-style="italic" font-weight="700">Boas Trades! 🚀📈</text>
</svg>
